<?xml version="1.0" standalone="no"?>
<!DOCTYPE svg PUBLIC "-//W3C//DTD SVG 1.1//EN" "http://www.w3.org/Graphics/SVG/1.1/DTD/svg11.dtd" >
<!--
2013-9-30: Created.
-->
<svg>
<metadata>
Created by iconfont
</metadata>
<defs>

<font id="iconfont" horiz-adv-x="1024" >
  <font-face
    font-family="iconfont"
    font-weight="500"
    font-stretch="normal"
    units-per-em="1024"
    ascent="896"
    descent="-128"
  />
    <missing-glyph />
    
    <glyph glyph-name="home" unicode="&#59334;" d="M946.5 391L560.1 777.2l-25.9 25.9c-12.3 12.2-32.1 12.2-44.4 0L77.5 391c-12.3-12.3-18.9-28.6-18.8-46 0.4-35.2 29.7-63.3 64.9-63.3h42.5V-44h691.8V281.7h43.4c17.1 0 33.2 6.7 45.3 18.8 12.1 12.1 18.7 28.2 18.7 45.3 0 17-6.7 33.1-18.8 45.2zM568 28H456V232h112v-204z m217.9 325.7V28H632V256c0 22.1-17.9 40-40 40H432c-22.1 0-40-17.9-40-40v-228H238.1V353.7h-96l370 369.7 23.1-23.1L882 353.7h-96.1z"  horiz-adv-x="1024" />

    
    <glyph glyph-name="sousuo" unicode="&#58893;" d="M923.24 4.59l-146.6 146.62c66.58 70.24 107.49 165.05 107.49 269.24 0 215.97-175.71 391.67-391.68 391.67s-391.67-175.7-391.67-391.67 175.7-391.67 391.67-391.67c86.99 0 167.43 28.52 232.51 76.68l149.57-149.58 48.71 48.71zM169.67 420.45c0 177.97 144.79 322.76 322.76 322.76 177.98 0 322.77-144.79 322.77-322.76S670.42 97.69 492.44 97.69 169.67 242.48 169.67 420.45z"  horiz-adv-x="1024" />

    
    <glyph glyph-name="menu" unicode="&#58943;" d="M225.854934 685.567313l-93.071745 0c-2.49789 0-4.523013-2.025123-4.523013-4.523013l0-93.071745c0-2.49789 2.025123-4.523013 4.523013-4.523013l93.071745 0c2.49789 0 4.523013 2.025123 4.523013 4.523013l0 93.071745C230.377948 683.54219 228.352825 685.567313 225.854934 685.567313zM868.248703 685.567313 302.545594 685.567313c-15.182794 0-27.491121-2.025123-27.491121-4.523013l0-93.071745c0-2.49789 12.308327-4.523013 27.491121-4.523013L868.248703 583.449541c15.182794 0 27.491121 2.025123 27.491121 4.523013l0 93.071745C895.739824 683.54219 883.431497 685.567313 868.248703 685.567313zM225.854934 434.261731l-93.071745 0c-2.49789 0-4.523013-2.025123-4.523013-4.523013l0-93.071745c0-2.49789 2.025123-4.523013 4.523013-4.523013l93.071745 0c2.49789 0 4.523013 2.025123 4.523013 4.523013l0 93.071745C230.377948 432.236608 228.352825 434.261731 225.854934 434.261731zM868.248703 434.261731 302.545594 434.261731c-15.182794 0-27.491121-2.025123-27.491121-4.523013l0-93.071745c0-2.49789 12.308327-4.523013 27.491121-4.523013L868.248703 332.143958c15.182794 0 27.491121 2.025123 27.491121 4.523013l0 93.071745C895.739824 432.236608 883.431497 434.261731 868.248703 434.261731zM225.854934 184.551482l-93.071745 0c-2.49789 0-4.523013-2.025123-4.523013-4.523013l0-93.071745c0-2.49789 2.025123-4.523013 4.523013-4.523013l93.071745 0c2.49789 0 4.523013 2.025123 4.523013 4.523013l0 93.071745C230.377948 182.526359 228.352825 184.551482 225.854934 184.551482zM868.248703 184.551482 302.545594 184.551482c-15.182794 0-27.491121-2.025123-27.491121-4.523013l0-93.071745c0-2.49789 12.308327-4.523013 27.491121-4.523013L868.248703 82.43371c15.182794 0 27.491121 2.025123 27.491121 4.523013l0 93.071745C895.739824 182.526359 883.431497 184.551482 868.248703 184.551482z"  horiz-adv-x="1024" />

    
    <glyph glyph-name="xiangyoujiantou" unicode="&#58975;" d="M761.6 406.4l-432 435.2c-9.6 9.6-25.6 9.6-35.2 0-9.6-9.6-9.6-25.6 0-35.2l416-416-416-425.6c-9.6-9.6-9.6-25.6 0-35.2s25.6-9.6 35.2 0l432 441.6C771.2 380.8 771.2 396.8 761.6 406.4z"  horiz-adv-x="1024" />

    
    <glyph glyph-name="xiangzuojiantou" unicode="&#58976;" d="M729.6-35.2l-416 425.6 416 416c9.6 9.6 9.6 25.6 0 35.2-9.6 9.6-25.6 9.6-35.2 0l-432-435.2c-9.6-9.6-9.6-25.6 0-35.2l432-441.6c9.6-9.6 25.6-9.6 35.2 0C739.2-60.8 739.2-44.8 729.6-35.2z"  horiz-adv-x="1024" />

    
    <glyph glyph-name="inform" unicode="&#58887;" d="M896-128H128a128 128 0 0 0-128 128V768a128 128 0 0 0 128 128h768a128 128 0 0 0 128-128v-768a128 128 0 0 0-128-128zM583.168 657.024c0 76.16-57.984 36.864-57.984 36.864L281.856 487.616h-46.4A43.84 43.84 0 0 1 192 443.392v-176.768c0-24.448 19.456-44.224 43.456-44.224h38.784l250.944-210.944s57.984-38.976 57.984 36.48V657.024z m22.912-235.712s67.584-84.736 0-147.328c-13.312-17.216 12.096-52.8 43.456-36.864 72.448 58.944 67.584 170.688 0 221.056-26.56 15.936-43.456-36.864-43.456-36.864z m79.68 162.048c-9.664 8.64-56.768-23.296-28.992-51.52 143.68-121.6 146.112-235.776 0-361.024-21.696-20.864 7.232-60.16 28.992-51.52 199.168 92.096 190.72 378.112 0 464.064z"  horiz-adv-x="1024" />

    
    <glyph glyph-name="zhongxinjiazai" unicode="&#59320;" d="M952.529455 436.247273a34.909091 34.909091 0 0 1-49.361455 0l-21.085091-21.085091C860.625455 619.682909 687.220364 779.636364 477.090909 779.636364a400.570182 400.570182 0 0 1-48.686545-3.211637c-7.842909-0.930909-15.616-2.164364-23.342546-3.560727-4.701091-0.837818-9.402182-1.582545-14.010182-2.56-9.844364-2.164364-19.572364-4.654545-29.160727-7.540364-6.865455-2.024727-13.521455-4.398545-20.247273-6.749091-3.537455-1.28-7.121455-2.56-10.635636-3.93309-7.237818-2.792727-14.336-5.701818-21.364364-8.890182-1.489455-0.674909-2.978909-1.442909-4.468363-2.141091-15.592727-7.330909-30.650182-15.499636-45.079273-24.645818l-1.931636-1.163637a394.309818 394.309818 0 0 1-26.624-18.734545 411.322182 411.322182 0 0 1-54.551273-49.780364c-2.443636-2.653091-4.887273-5.259636-7.261091-7.982545A375.04 375.04 0 0 1 148.945455 612.538182a407.319273 407.319273 0 0 1-37.771637-62.557091c-1.000727-2.071273-2.141091-4.026182-3.118545-6.097455-0.232727-0.418909-0.279273-0.861091-0.465455-1.28A404.340364 404.340364 0 0 1 69.818182 372.363636C69.818182 147.781818 252.509091-34.909091 477.090909-34.909091c143.476364 0 273.687273 73.309091 348.299636 196.049455a34.909091 34.909091 0 0 1-59.671272 36.258909C703.883636 95.650909 595.991273 34.909091 477.090909 34.909091 291.025455 34.909091 139.636364 186.298182 139.636364 372.363636a335.127273 335.127273 0 0 0 32.907636 144.384A335.755636 335.755636 0 0 0 210.385455 578.327273c4.119273 5.352727 8.378182 10.565818 12.8 15.616l3.397818 3.746909a341.224727 341.224727 0 0 0 48.151272 44.101818l3.258182 2.443636a340.619636 340.619636 0 0 0 58.112 34.327273l1.908364 0.930909a313.320727 313.320727 0 0 0 26.391273 10.565818c5.771636 2.094545 11.52 4.096 17.408 5.841455 7.842909 2.327273 15.802182 4.421818 23.901091 6.167273 3.909818 0.861091 7.912727 1.466182 11.845818 2.187636a371.479273 371.479273 0 0 0 29.416727 4.049455c9.937455 0.930909 19.968 1.536 30.114909 1.536 169.378909 0 309.597091-125.556364 333.474909-288.395637l-14.801454 14.824727a34.909091 34.909091 0 1 1-49.361455-49.338181l78.382546-78.429091a34.932364 34.932364 0 0 1 49.338181 0l78.405819 78.429091a34.909091 34.909091 0 0 1 0 49.338181"  horiz-adv-x="1024" />

    
    <glyph glyph-name="kulian" unicode="&#58889;" d="M512.753048 261.601416c163.023369 0 316.758988-70.914576 421.781354-194.562311 16.597779-19.49868 14.38166-48.355657-5.040392-65.708765-7.940078-7.098391-18.400352-11.006398-29.455402-11.006397-13.833104 0-27.039808 5.884512-36.235118 16.141662-88.754208 103.405889-217.145556 162.761862-352.17188 162.761862-135.993291 0-264.391937-59.369352-352.275267-162.881061-8.869339-10.416487-21.57249-16.395871-34.852173-16.395871-10.887199 0-21.40464 4.040585-29.615954 11.378589-9.797384 8.321999-15.59189 19.603283-16.433577 31.87586-0.819794 11.986744 3.192816 23.563591 11.293447 32.608079 106.837102 124.461447 260.986267 195.788352 423.004962 195.788353z m264.399236 238.602497c-42.35073 0-78.128516 36.623122-78.128516 79.97001v116.782877c0 43.35297 35.777786 79.978525 78.128516 79.978524 42.349514 0 78.126083-36.625554 78.126083-79.978524v-116.78531c0.001216-44.093703-35.045567-79.967578-78.126083-79.967577z m-530.211824 0c-42.348297 0-78.124867 36.623122-78.124867 79.97001v116.782877c0 43.35297 35.776569 79.978525 78.124867 79.978524 42.356811 0 78.139462-36.625554 78.139463-79.978524v-116.78531c0-43.344456-35.783867-79.967578-78.139463-79.967577z"  horiz-adv-x="1024" />

    
    <glyph glyph-name="gonggao" unicode="&#58882;" d="M651.264 161.27999999999997c3.072-6.144 6.144-11.776 9.216-16.896 22.528-39.424 4.608-79.872-39.424-90.624-46.592-11.264-92.672-23.04-139.264-34.304-10.24-2.56-20.992-5.632-31.232-7.168-32.256-5.632-60.928 2.048-81.92 28.16-6.656 8.192-11.264 18.944-15.872 28.672-2.048 4.096-4.096 5.12-8.704 3.584-16.384-4.608-32.768-10.752-49.664-13.312-37.376-5.632-69.12 6.656-93.184 36.864-7.168 8.704-13.824 17.92-20.48 27.648-24.576 35.84-27.136 73.728-5.12 111.616 47.616 80.896 96.256 160.768 144.384 241.152 39.424 65.536 78.848 131.072 118.272 197.12 8.192 13.824 18.944 25.6 35.328 29.696 22.528 5.632 40.96-2.048 55.296-19.456 12.288-14.336 23.04-29.696 34.816-44.544C625.152 559.616 686.08 479.744 747.52 399.36c27.648-36.352 55.808-72.704 82.944-109.056 14.848-19.456 15.872-43.52 3.072-61.44-7.168-10.752-17.408-17.92-29.696-22.016-39.936-11.776-80.384-23.552-120.832-35.328-10.752-4.096-20.992-7.168-31.744-10.24z m-449.536 22.016c0-12.8 3.072-24.576 10.752-35.328l19.968-26.112c15.36-19.968 39.936-28.16 64-20.992l350.208 101.376c46.592 13.312 93.696 27.136 140.288 40.448 15.36 4.608 17.92 11.776 8.192 25.088l-1.024 1.024c-38.4 50.176-76.8 99.84-114.688 150.016-59.904 78.336-119.296 156.16-179.2 234.496-10.752 13.824-17.408 13.312-26.624-1.536-9.216-15.36-18.432-30.72-27.648-45.568-78.336-130.56-157.184-261.632-235.52-392.192-6.144-9.728-9.216-19.968-8.704-30.72z m187.904-97.792c2.048-4.608 4.096-7.68 5.632-11.264 7.168-17.408 21.504-23.552 38.912-23.04 9.216 0.512 17.92 3.072 27.136 5.12 50.688 12.288 101.376 25.088 152.064 37.888 15.872 4.096 19.968 14.336 12.288 28.672-3.584 7.168-7.68 13.824-11.264 20.992-2.048 5.12-4.608 6.144-10.24 4.608-38.912-11.264-77.312-22.528-116.224-33.792-32.256-10.24-65.024-19.456-98.304-29.184zM751.104 498.176c-8.192 11.264-16.384 21.504-24.576 32.768 58.368 43.52 116.224 87.04 174.592 130.56 8.192-10.752 15.872-21.504 24.576-32.768-58.368-43.52-115.712-87.04-174.592-130.56zM684.032 766.976c12.8-5.12 24.576-10.24 37.376-15.872-20.48-48.128-40.448-96.256-61.44-144.896-12.8 5.12-24.576 10.24-37.376 15.872 20.48 48.128 40.96 96.256 61.44 144.896zM956.928 451.584c2.56-13.824 5.12-26.624 7.68-39.936-48.64-9.216-97.28-18.432-146.432-27.648-2.56 13.312-5.12 26.112-7.68 39.936 49.152 9.728 97.28 18.432 146.432 27.648z"  horiz-adv-x="1024" />

    
    <glyph glyph-name="jinyan" unicode="&#58886;" d="M858.737778 417.943704c0-28.254815 22.660741-51.2 50.536296-51.2s50.631111 22.945185 50.631111 51.2-22.660741 51.105185-50.631111 51.105185-50.536296-22.85037-50.536296-51.105185M909.274074 128.094815c-37.831111 0-74.145185 5.30963-108.088889 15.17037l-77.368889-49.303704v81.825186c-91.401481 51.863704-151.703704 140.98963-151.703703 242.157037 0 160.142222 150.945185 289.943704 337.256296 289.943703 186.216296 0 337.161481-129.801481 337.161481-289.943703 0-33.848889-6.731852-66.37037-19.152592-96.521482 14.980741-9.481481 28.444444-21.238519 39.917037-34.891852 19.626667 41.054815 29.771852 85.902222 29.771852 131.413334 0 188.397037-173.605926 341.048889-387.792593 341.048889S521.481481 606.245926 521.481481 417.943704c0-110.26963 59.448889-208.213333 151.798519-270.601482v-119.466666c0-18.773333 12.041481-24.746667 27.022222-13.368889l99.555556 76.136296c61.44-15.739259 125.534815-18.014815 187.828148-6.826667-8.912593 15.075556-15.54963 31.478519-19.626667 48.64-19.152593-2.844444-38.779259-4.361481-58.785185-4.361481M1060.977778 417.943704c0-28.254815 22.660741-51.2 50.631111-51.2 27.875556 0 50.631111 22.945185 50.631111 51.2s-22.660741 51.105185-50.631111 51.105185-50.536296-22.85037-50.631111-51.105185m-404.574815 0c0-28.254815 22.660741-51.2 50.631111-51.2s50.536296 22.945185 50.536296 51.2-22.660741 51.105185-50.536296 51.105185c-28.065185 0-50.631111-22.85037-50.631111-51.105185m494.459259-127.051852c-73.860741 0-133.973333-60.965926-133.973333-135.86963 0-74.903704 60.112593-135.86963 133.973333-135.869629 73.955556 0 134.068148 60.965926 134.068148 135.869629 0 74.998519-60.112593 135.964444-134.068148 135.86963z m0-234.761482c-53.76 0-97.564444 44.373333-97.564444 98.891852 0 22.186667 7.205926 42.761481 19.437037 59.259259l136.628148-138.429629c-16.782222-12.8-37.357037-19.721481-58.500741-19.721482z m87.703704 55.371852l-130.654815 132.456297c12.98963 6.447407 27.591111 10.05037 43.045926 10.05037 53.854815 0 97.659259-44.373333 97.659259-98.986667-0.094815-15.54963-3.697778-30.340741-10.05037-43.52z m0 0"  horiz-adv-x="1820" />

    
    <glyph glyph-name="go2bottom" unicode="&#58970;" d="M790.624 594.752L745.376 640 512 406.624 278.624 640 233.376 594.752 512 316.12800000000004zM192 160h640v64H192z"  horiz-adv-x="1024" />

    
    <glyph glyph-name="time" unicode="&#59088;" d="M512 832C264.96 832 64 631.04 64 384s200.96-448 448-448 448 200.96 448 448S759.04 832 512 832z m0-831.712c-211.584 0-383.712 172.16-383.712 383.712 0 211.584 172.128 383.712 383.712 383.712 211.552 0 383.712-172.128 383.712-383.712 0-211.552-172.16-383.712-383.712-383.712zM671.968 384H512V607.936c0 17.76-14.24 32.128-32 32.128s-32-14.4-32-32.128V352c0-17.76 14.272-32 32-32h191.968c17.76 0 32.128 14.24 32.128 32s-14.368 32-32.128 32z"  horiz-adv-x="1024" />

    
    <glyph glyph-name="users" unicode="&#59080;" d="M393.21649 275.697c-136.614 0-247.567 111.074-247.567 247.567s110.953 247.567 247.567 247.567 247.567-111.074 247.567-247.567S529.71049 275.697 393.21649 275.697z m0 421.888c-96.196 0-174.32-78.246-174.32-174.321s78.124-174.32 174.32-174.32 174.32 78.245 174.32 174.32-78.124 174.32-174.32 174.32z m0 0M36.68349-2.831a36.744 36.744 0 0 0-35.539 45.839 409.72 409.72 0 0 0 396.77 306.718 409.901 409.901 0 0 0 396.65-306.296 36.503 36.503 0 0 0-26.203-44.635 36.503 36.503 0 0 0-44.634 26.203A336.595 336.595 0 0 1 397.85449 276.48 336.414 336.414 0 0 1 71.98149 24.696a36.322 36.322 0 0 0-35.298-27.527z m621.87 314.73c-6.084 0-12.228 0.3-18.071 0.662a36.623 36.623 0 1 0 6.144 73.126 148.36 148.36 0 0 1 160.888 148.36 149.203 149.203 0 0 1-148.962 148.961 36.623 36.623 0 0 0 0 73.246A222.449 222.449 0 0 0 880.76049 534.046c0-55.597-20.6-108.905-58.187-149.926a221.485 221.485 0 0 0-164.02-72.222z m0 0M987.37749 79.932a36.744 36.744 0 0 0-35.418 27.407 269.734 269.734 0 0 1-249.495 200.222h-0.301a259.915 259.915 0 0 1-23.733-0.12h-1.927a36.623 36.623 0 0 0-1.627 73.246c9.758 0.542 19.818 0.542 29.576 0.241h0.3a337.92 337.92 0 0 0 202.512-75.957 343.763 343.763 0 0 0 115.471-179.08 36.503 36.503 0 0 0-26.202-44.634 32.045 32.045 0 0 0-9.156-1.325z m0 0"  horiz-adv-x="1024" />

    
    <glyph glyph-name="share" unicode="&#59659;" d="M751.968 271.904c-55.68 0-103.456-31.968-127.392-78.24L367.36 349.952c10.336 19.872 16.736 42.08 16.736 66.016 0 16.352-3.328 31.776-8.32 46.432L645.28 608c26.368-29.312 64.192-48.096 106.688-48.096 79.552 0 144 64.48 144 144s-64.448 144-144 144c-79.488 0-144-64.48-144-144 0-13.952 2.592-27.168 6.304-39.904l-271.84-146.848c-26.08 26.4-62.272 42.816-102.368 42.816-79.52 0-144-64.48-144-144s64.48-144 144-144c32.064 0 61.408 10.848 85.344 28.576L608.064 128.8c0-0.32-0.096-0.608-0.096-0.864 0-79.52 64.512-144 144-144 79.552 0 144 64.48 144 144s-64.448 143.968-144 143.968z m0 512c44.128 0 80-35.904 80-80s-35.872-80-80-80-80 35.904-80 80 35.872 80 80 80zM240.064 335.968c-44.096 0-80 35.904-80 80s35.904 80 80 80 80-35.904 80-80-35.872-80-80-80z m511.904-288.064c-44.128 0-80 35.872-80 80s35.872 80 80 80 80-35.872 80-80-35.872-80-80-80z"  horiz-adv-x="1024" />

    
    <glyph glyph-name="shizhong" unicode="&#59275;" d="M512-64c-246.4 0-448 201.6-448 448s201.6 448 448 448 448-201.6 448-448-201.6-448-448-448z m0 64c211.2 0 384 172.8 384 384s-172.8 384-384 384-384-172.8-384-384 172.8-384 384-384z m32 576v-211.2l3.2-3.2 156.8-156.8c12.8-12.8 12.8-32 0-44.8s-32-12.8-44.8 0l-156.8 156.8c-3.2 3.2-22.4 22.4-22.4 35.2v224c0 19.2 12.8 32 32 32s32-12.8 32-32z"  horiz-adv-x="1024" />

    
    <glyph glyph-name="www" unicode="&#58946;" d="M514.56-69.12c-248.32 0-450.56 202.24-450.56 450.56s202.24 450.56 450.56 450.56c248.32 0 450.56-202.24 450.56-450.56S762.88-69.12 514.56-69.12zM514.56 783.36c-222.72 0-404.48-181.76-404.48-404.48s181.76-404.48 404.48-404.48 404.48 181.76 404.48 404.48S737.28 783.36 514.56 783.36zM499.2-33.28c-7.68 0-12.8 5.12-12.8 12.8l0 844.8c0 7.68 5.12 12.8 12.8 12.8s12.8-5.12 12.8-12.8l0-844.8C512-28.16 506.88-33.28 499.2-33.28zM634.88-25.6c-2.56 0-7.68 0-10.24 2.56-7.68 5.12-10.24 15.36-5.12 23.04 161.28 243.2 161.28 496.64 0 775.68-5.12 7.68-2.56 17.92 5.12 23.04 7.68 5.12 17.92 2.56 23.04-5.12 166.4-286.72 166.4-560.64 0-811.52C645.12-23.04 640-25.6 634.88-25.6zM396.8-25.6c-5.12 0-10.24 2.56-12.8 7.68-194.56 253.44-194.56 527.36 0 814.08 5.12 7.68 15.36 10.24 23.04 5.12 7.68-5.12 10.24-15.36 5.12-23.04-186.88-279.04-186.88-532.48 0-775.68 5.12-7.68 5.12-17.92-2.56-23.04C404.48-23.04 399.36-25.6 396.8-25.6zM916.48 409.6l-844.8 0c-7.68 0-12.8 5.12-12.8 12.8s5.12 12.8 12.8 12.8l844.8 0c7.68 0 12.8-5.12 12.8-12.8S924.16 409.6 916.48 409.6zM512 527.36c-107.52 0-207.36 43.52-322.56 130.56-7.68 5.12-7.68 15.36-2.56 23.04 5.12 7.68 15.36 7.68 23.04 2.56 212.48-161.28 368.64-163.84 619.52-10.24 7.68 5.12 17.92 2.56 23.04-5.12 5.12-7.68 2.56-17.92-5.12-23.04C719.36 565.76 614.4 527.36 512 527.36zM202.24 89.6c-5.12 0-10.24 2.56-12.8 7.68-5.12 7.68-5.12 17.92 2.56 23.04 222.72 168.96 394.24 171.52 655.36 12.8 7.68-5.12 10.24-15.36 5.12-23.04-5.12-7.68-15.36-10.24-23.04-5.12-250.88 153.6-407.04 148.48-619.52-10.24C209.92 89.6 204.8 89.6 202.24 89.6z"  horiz-adv-x="1024" />

    
    <glyph glyph-name="guanbi" unicode="&#60266;" d="M548.992 392.256L885.44 728.672a31.968 31.968 0 1 1-45.248 45.248L503.744 437.504 167.328 773.92a31.968 31.968 0 1 1-45.248-45.248l336.416-336.416L122.08 55.84a31.968 31.968 0 1 1 45.248-45.248l336.416 336.416L840.16 10.56a31.968 31.968 0 1 1 45.248 45.248L548.992 392.256z"  horiz-adv-x="1024" />

    
    <glyph glyph-name="dianhua" unicode="&#59016;" d="M454.93917163 261.16240905999996c-6.43260745-26.16129355-17.09206787-49.97012063-32.33757486-71.5908988-15.24129153-21.54236297-34.33337814-40.79212454-57.6919476-57.65231773 10.80195776-6.94778933 20.23796585-12.29691302 28.5297822-16.10892196 8.30952274-3.55231027 15.06506726-5.51354287 20.23628-5.51354288 17.13844282 0 35.16306536 12.7994469 54.09663492 38.22970523 19.15448209 25.35268606 28.55086111 47.45829172 28.55086111 66.08072846 0 7.21001761-2.84235397 13.84498828-8.49080539 20.39479705C482.22695136 241.63102615000003 471.25129974 250.22722942999997 454.93917163 261.16240905999996zM612.37995779 517.3334751c8.13329846-2.10963208 14.57096429-3.15517346 19.42598584-3.15517346 12.56167089 0 24.65959324 11.58864258 36.36712464 34.99021444 11.611409 23.23715185 17.45800735 46.86216504 17.45800736 71.25025452 0 13.92256055-3.65602148 24.86364231-10.97902497 32.69423968-7.36600589 7.78000616-22.58790436 16.0566449-45.45237085 24.61827751 0-29.78949023-4.26226657-57.56631372-12.39725089-83.3970814-8.33313126-25.89822234-20.07776212-48.32592215-35.45986432-67.3556141C593.89748879 522.8411158399999 604.24244387 519.53079786 612.37995779 517.3334751zM900.78320163 548.3944784600001c-21.17052136 50.05190835-51.47350681 94.99921572-90.06662274 133.59148708-38.59227218 38.59311511-83.54042248 68.89525763-133.59148709 90.06662275-51.83607376 21.924323-106.88128474 33.04078611-163.61116535 33.0407861-56.73156729 0-111.77846411-11.11646311-163.61285201-33.0407861-8.09113898-3.42246094-16.04652649-7.08607041-23.86616255-10.98239749-43.00546702-20.24471172-81.420672-47.40601465-115.44291732-81.45861521-38.44050019-38.2212735-68.07484507-82.58678723-88.92580188-133.13448523-20.96562937-50.65984012-31.49018124-102.82981228-31.49018124-156.81936429 0-47.3714448 7.20327256-91.42245318 21.61740564-131.7314361 2.2816409-6.40984186 4.75130951-12.69404983 7.37359469-18.87960579 2.21924542-5.99752744 4.57508524-11.95795541 7.07679575-17.87453724 11.48493218-27.15287201 25.66297512-52.8023562 42.38910434-76.75030728 6.94610266-5.72433783 17.37874841-11.73704206 33.23893304-14.17298456 2.36848782-0.7099563 4.65940338-1.07336618 6.84492187-1.07336618 0.53879123 0 1.17117443 0.05902212 1.87944489 0.1568312 1.11130939-0.06745386 2.23948142-0.12226053 3.39547907-0.1568312 17.18650359-0.49578882 22.89229129 4.45451138 24.55082363 6.59871333-28.09723096 30.96235134-50.54685425 66.08072846-66.84802101 104.62325316-19.33576557 45.71797165-29.14108649 94.29769117-29.1410865 144.38585605 0 50.08985156 9.80532092 98.66957108 29.1410865 144.38754272 18.68314553 44.16989639 45.43466446 83.84649609 79.5108727 117.92017475 34.0745224 34.07620908 73.75196503 60.82941384 117.92017474 79.51087271 45.71797165 19.33745141 94.29769117 29.14192942 144.38922941 29.14192942 50.08985156 0 98.66704148-9.80532092 144.38585604-29.14192942 20.04319226-8.47647153 39.1487698-18.63255432 57.23747452-30.36285132 17.43355508-12.36436688 33.93455466-26.31643891 49.50384246-41.81827203 35.26171738-35.30134726 62.45084592-75.77559311 81.54461921-121.60402103 19.11316635-45.84782181 28.70769232-93.45282632 28.70769232-143.00641626 0-49.05611527-9.59452597-96.58354751-28.70769232-142.66155652-19.09377329-46.14124741-46.28290183-86.63825885-81.54461921-121.52307623-35.25834485-35.30809231-75.7376499-62.4381979-121.69761383-81.55305093-45.94647299-19.10473462-93.46800394-28.74057632-142.37403304-28.74057633-9.90565879 0-19.47826208 0.2681304-28.73551712 0.79174485-35.38397873 3.93764282-69.78818326 12.91749197-102.70923844 26.8417392-15.04061499 6.36178025-29.29538809 11.914953-43.37309317 22.92095984-15.82898647 15.45714487-21.19581655 33.54584958-21.19581655 54.22058211 0 6.71422879 1.26308139 13.27668558 3.61133239 19.74555039 2.46882651 6.39803677 3.90981803 13.13334531 9.53550384 20.49850827 5.46885461-5.18891913 10.36519107-8.90902194 14.90739313-11.40735993 4.40054764-2.5295353 8.29350219-3.57676254 11.76486685-3.57676253 5.47054129 0 13.80198587 4.69481699 25.27427006 14.10047148 11.25474417 9.54477851 22.54658862 21.61319018 33.84096185 36.33761317 9.28002063 12.5667301 17.09881293 26.66382825 23.67476065 42.58893713 6.61220425 15.64348755 9.890482 25.6646618 9.89048199 30.05593479 0 2.66107049-3.95113376 8.66197129-11.59032925 17.88465563-7.83734243 9.2437641-11.78763327 18.46560552-11.78763327 28.09470218 0 12.56167089 3.57339002 29.16891128 10.82135083 49.6336918 7.20664508 20.74050054 17.57183616 45.36046472 31.39068548 73.87169596 15.97401343 32.11328979 28.84597339 54.72227307 38.8932866 67.83453946 9.83483157 13.03300745 20.02548505 21.21099417 30.56690039 24.85436765 2.35162436 0.97471417 6.43935251 1.77657659 11.90483459 2.35499688 18.00775909 1.93340781 31.53065322 9.71004144 40.4953256 23.39145346 8.13498432 13.84330161 15.32223633 31.49692629 21.44202511 53.19106128 6.15941784 21.4597315 9.27833395 39.84523517 9.27833395 54.82429761 0 12.29859888-1.91401474 20.55921707-5.82298983 24.7852271-3.7732228 4.28671884-11.70921726 6.46717813-24.14947056 6.46717815-19.26999756 0-35.57622271-1.44942324-49.0999606-4.12229883-13.48242133-2.84066812-23.63344492-6.73362186-30.68073002-12.06672502-8.62908728-6.07341384-22.3113414-20.98417868-41.12770879-45.01307454-18.79866101-23.80629666-38.10575803-51.11094068-57.71302651-81.63989786-35.77436965-56.01402218-65.2097255-115.77765866-88.13658748-179.09276249-23.0769473-63.55119314-34.50960242-111.07356701-34.50960241-142.908608 0-6.23193091 1.45869873-12.7134429 4.1239855-19.60052344 2.78670438-6.87527627 7.64256803-16.03809475 14.7328547-27.28946639-9.59621265-11.98746607-16.64433984-23.89061481-21.16714882-35.45986433-15.79610248-40.72129733-6.850824-90.29090781 12.87195996-113.60057272 13.82390854-16.93017746 39.11757166-36.03659875 70.13304382-48.52659869 46.97852344-18.91754902 98.86012921-23.40915984 155.5916965-23.40915985 56.72988062 0 111.77509158 12.68055891 163.61116534 34.6048819 50.05022251 21.16967843 94.99921572 51.47350681 133.59148709 90.06662273 38.59311511 38.59227218 68.89610056 83.53873582 90.06662275 133.5914871 21.92263632 51.83607376 33.04078611 106.88128474 33.0407861 163.61116534C933.8231448 441.51319373 922.70583795 496.55924763 900.78320163 548.3944784600001z"  horiz-adv-x="1024" />

    
    <glyph glyph-name="queding" unicode="&#58939;" d="M503.92273857 821.45037275a434.79915837 434.79915837 0 1 1 434.79915836-437.45037275 434.79915837 434.79915837 0 0 1-434.79915836 437.45037275z m161.7240772-365.86758448S511.21357812 273.31179963 490.66666667 251.43928098000004a25.18653662 25.18653662 0 0 0-38.44260851 0l-110.02539679 112.67661117a33.80298335 33.80298335 0 0 0 0 43.08223368 23.19812583 23.19812583 0 0 0 36.45419774 0l92.12969971-94.1181105 158.41005922 184.92220302a23.19812583 23.19812583 0 0 0 36.45419773 0 34.46578693 34.46578693 0 0 0 0-43.08223368z"  horiz-adv-x="1024" />

    
    <glyph glyph-name="check" unicode="&#59388;" d="M912 706h-69.9c-9.8 0-19.1-4.5-25.1-12.2L404.7 171.5 207 422c-6.1 7.7-15.3 12.2-25.1 12.2H112c-6.7 0-10.4-7.7-6.3-12.9l273.9-347c12.8-16.2 37.4-16.2 50.3 0l488.4 618.9c4.1 5.1 0.4 12.8-6.3 12.8z"  horiz-adv-x="1024" />

    
    <glyph glyph-name="close" unicode="&#59389;" d="M563.8 384l262.5 312.9c4.4 5.2 0.7 13.1-6.1 13.1h-79.8c-4.7 0-9.2-2.1-12.3-5.7L511.6 446.2 295.1 704.3c-3 3.6-7.5 5.7-12.3 5.7H203c-6.8 0-10.5-7.9-6.1-13.1L459.4 384 196.9 71.1c-4.4-5.2-0.7-13.1 6.1-13.1h79.8c4.7 0 9.2 2.1 12.3 5.7l216.5 258.1 216.5-258.1c3-3.6 7.5-5.7 12.3-5.7h79.8c6.8 0 10.5 7.9 6.1 13.1L563.8 384z"  horiz-adv-x="1024" />

    
    <glyph glyph-name="huo" unicode="&#58988;" d="M347-48c-57 120-27 189 18 252 48 72 60 141 60 141s39-48 24-126c66 75 78 195 69 240 150-105 216-336 129-504 462 264 114 657 54 699 21-45 24-120-18-156-69 264-240 315-240 315 21-135-72-282-162-393-3 54-6 90-36 144-6-99-81-177-102-276C116 153 164 57 347-48L347-48z"  horiz-adv-x="1024" />

    
    <glyph glyph-name="login" unicode="&#59447;" d="M511.976 832C320.946 832 157.868 712.392 93.454 544l69.278 0c18.792 40.968 44.914 78.7 77.736 111.524C312.994 728.054 409.418 768 511.976 768c102.572 0 199.008-39.946 271.542-112.478C856.054 582.99 896 486.562 896 384c0-102.57-39.946-199.002-112.478-271.53C710.988 39.94200000000001 614.55 0 511.976 0c-102.562 0-198.986 39.942-271.51 112.468C207.642 145.29200000000003 181.52 183.02800000000002 162.724 224L93.45 224c64.412-168.402 227.492-288 418.528-288C759.406-64 960 136.57000000000005 960 384 960 631.404 759.406 832 511.976 832zM413.726 248.23400000000004L458.98 202.98000000000002 640 384 458.98 565.02 413.724 519.764 517.49 416 64 416 64 352 517.49 352Z"  horiz-adv-x="1024" />

    
    <glyph glyph-name="zuobian" unicode="&#59289;" d="M675.328 130.373818L400.570182 384l274.757818 253.626182a34.909091 34.909091 0 1 1-47.36 51.316363l-302.545455-279.272727a34.909091 34.909091 0 0 1 0-51.316363l302.545455-279.272728a34.909091 34.909091 0 1 1 47.36 51.316364"  horiz-adv-x="1024" />

    
    <glyph glyph-name="youbian" unicode="&#59290;" d="M325.399273 660.875636L600.157091 407.272727 325.399273 153.646545a34.909091 34.909091 0 1 1 47.36-51.316363l302.545454 279.272727a34.909091 34.909091 0 0 1 0 51.316364l-302.545454 279.272727a34.909091 34.909091 0 1 1-47.36-51.316364"  horiz-adv-x="1024" />

    
    <glyph glyph-name="shangla" unicode="&#59287;" d="M246.760727 209.035636L500.363636 483.793455l253.626182-274.757819a34.909091 34.909091 0 1 1 51.316364 47.36l-279.272727 302.545455a34.909091 34.909091 0 0 1-51.316364 0l-279.272727-302.545455a34.909091 34.909091 0 1 1 51.316363-47.36"  horiz-adv-x="1024" />

    
    <glyph glyph-name="xiala" unicode="&#59288;" d="M753.966545 558.941091L500.363636 284.183273 246.737455 558.941091a34.909091 34.909091 0 1 1-51.316364-47.36l279.272727-302.545455a34.909091 34.909091 0 0 1 51.316364 0l279.272727 302.545455a34.909091 34.909091 0 1 1-51.316364 47.36"  horiz-adv-x="1024" />

    
    <glyph glyph-name="xunhuan" unicode="&#59313;" d="M935.005091 436.247273a34.909091 34.909091 0 1 0 49.361454-49.361455l-78.382545-78.382545a34.816 34.816 0 0 0-49.338182 0l-78.405818 78.382545a34.909091 34.909091 0 1 0 49.361455 49.361455l14.801454-14.824728C818.525091 584.261818 678.330182 709.818182 508.928 709.818182c-130.466909 0-250.484364-76.706909-305.710545-195.397818a34.932364 34.932364 0 0 0-63.301819 29.463272C206.522182 687.104 351.418182 779.636364 508.904727 779.636364c210.152727 0 383.534545-159.953455 404.992-364.474182l21.085091 21.085091z m-73.960727-189.021091a34.932364 34.932364 0 0 0 16.965818-46.382546C811.310545 57.646545 666.461091-34.909091 508.951273-34.909091c-210.106182 0-383.534545 159.953455-404.968728 364.497455l-21.108363-21.108364a34.909091 34.909091 0 1 0-49.384727 49.361455l78.42909 78.42909a34.909091 34.909091 0 0 0 49.338182 0l78.382546-78.42909a34.909091 34.909091 0 1 0-49.338182-49.338182l-14.824727 14.801454C199.354182 160.465455 339.549091 34.909091 508.951273 34.909091c130.490182 0 250.507636 76.706909 305.710545 195.397818a34.909091 34.909091 0 0 0 46.382546 16.919273z"  horiz-adv-x="1024" />

    
    <glyph glyph-name="shoucang-tianchong" unicode="&#59304;" d="M931.770182 526.219636l-229.329455 33.326546a53.248 53.248 0 0 0-40.098909 29.160727l-102.539636 207.778909c-19.549091 39.586909-76.055273 39.586909-95.604364 0l-102.539636-207.778909a53.294545 53.294545 0 0 0-40.122182-29.160727l-229.306182-33.326546c-43.706182-6.353455-61.160727-60.043636-29.533091-90.903272l165.934546-161.722182c12.544-12.241455 18.269091-29.905455 15.313454-47.173818l-39.168-228.375273c-7.470545-43.52 38.213818-76.753455 77.312-56.180364l205.102546 107.822546a53.248 53.248 0 0 0 49.594182 0l205.125818-107.822546c39.074909-20.573091 84.759273 12.637091 77.312 56.180364l-39.191273 228.375273a53.457455 53.457455 0 0 0 15.336727 47.173818l165.934546 161.745454c31.627636 30.813091 14.173091 84.526545-29.533091 90.88"  horiz-adv-x="1024" />

    
    <glyph glyph-name="zuo-yuan" unicode="&#59335;" d="M930.909091 384c0-230.981818-187.927273-418.909091-418.909091-418.909091S93.090909 153.018182 93.090909 384 281.018182 802.909091 512 802.909091s418.909091-187.927273 418.909091-418.909091M23.272727 384c0-269.917091 218.810182-488.727273 488.727273-488.727273s488.727273 218.810182 488.727273 488.727273S781.917091 872.727273 512 872.727273 23.272727 653.917091 23.272727 384m348.392728 35.467636a34.932364 34.932364 0 0 1-1.373091-49.384727l186.181818-196.305454a34.909091 34.909091 0 0 1 50.664727 48.058181l-162.117818 170.938182 160.814545 152.040727c7.237818 6.865455 10.891636 16.104727 10.891637 25.367273a34.909091 34.909091 0 0 1-58.903273 25.344l-186.181818-176.058182z"  horiz-adv-x="1024" />

    
    <glyph glyph-name="you-yuan" unicode="&#59336;" d="M93.090909 384c0 230.981818 187.927273 418.909091 418.909091 418.909091s418.909091-187.927273 418.909091-418.909091-187.927273-418.909091-418.909091-418.909091S93.090909 153.018182 93.090909 384m907.636364 0c0 269.917091-218.810182 488.727273-488.727273 488.727273S23.272727 653.917091 23.272727 384s218.810182-488.727273 488.727273-488.727273 488.727273 218.810182 488.727273 488.727273m-348.392728-35.467636a34.932364 34.932364 0 0 1 1.373091 49.384727l-186.181818 196.305454a34.909091 34.909091 0 0 1-50.664727-48.058181l162.117818-170.938182-160.814545-152.040727A34.792727 34.792727 0 0 1 407.272727 197.818182a34.909091 34.909091 0 0 1 58.903273-25.344l186.181818 176.058182z"  horiz-adv-x="1024" />

    
    <glyph glyph-name="pinglun-tianchong" unicode="&#59382;" d="M523.636364-58.181818c-79.476364 0-158.114909 18.269091-228.305455 52.852363l-136.866909-28.811636a34.885818 34.885818 0 0 0-41.355636 41.332364l23.016727 109.358545C78.824727 191.092364 46.545455 279.156364 46.545455 372.363636 46.545455 609.792 260.561455 802.909091 523.636364 802.909091 786.688 802.909091 1000.727273 609.792 1000.727273 372.363636 1000.727273 134.958545 786.688-58.181818 523.636364-58.181818z m232.727272 384a46.545455 46.545455 0 1 1-0.046545 93.137454A46.545455 46.545455 0 0 1 756.363636 325.818182z m-232.727272 0a46.545455 46.545455 0 1 1-0.046546 93.137454A46.545455 46.545455 0 0 1 523.636364 325.818182z m-232.727273 0a46.545455 46.545455 0 1 1-0.046546 93.137454A46.545455 46.545455 0 0 1 290.909091 325.818182z"  horiz-adv-x="1024" />

    
    <glyph glyph-name="caret-down" unicode="&#59628;" d="M840.4 596H183.6c-19.7 0-30.7-20.8-18.5-35l328.4-380.8c9.4-10.9 27.5-10.9 37 0L858.9 561c12.2 14.2 1.2 35-18.5 35z"  horiz-adv-x="1024" />

    
    <glyph glyph-name="caret-up" unicode="&#59629;" d="M858.9 207L530.5 587.8c-9.4 10.9-27.5 10.9-37 0L165.1 207c-12.2-14.2-1.2-35 18.5-35h656.8c19.7 0 30.7 20.8 18.5 35z"  horiz-adv-x="1024" />

    
    <glyph glyph-name="daodianditu" unicode="&#59238;" d="M761.6 697.6c-137.6 137.6-361.6 137.6-499.2 0-137.6-137.6-137.6-358.4 0-496l227.2-224c12.8-12.8 32-12.8 44.8 0l22.4 22.4 211.2 211.2c131.2 137.6 128 352-6.4 486.4z m-160-742.4l-22.4-22.4c-38.4-38.4-99.2-38.4-134.4 0l-227.2 224c-163.2 163.2-163.2 425.6 0 585.6s425.6 163.2 588.8 0c163.2-163.2 163.2-425.6 0-585.6l-9.6-9.6-195.2-192z m-89.6 332.8c-105.6 0-192 86.4-192 192s86.4 192 192 192 192-86.4 192-192-86.4-192-192-192z m0 64c70.4 0 128 57.6 128 128s-57.6 128-128 128-128-57.6-128-128 57.6-128 128-128z"  horiz-adv-x="1024" />

    
    <glyph glyph-name="manyidu1" unicode="&#59239;" d="M345.6 214.39999999999998c3.2 3.2 3.2 6.4 6.4 9.6 41.6 41.6 99.2 67.2 160 67.2s118.4-22.4 160-67.2l9.6-9.6c12.8-19.2 6.4-32-6.4-44.8-12.8-12.8-32-9.6-44.8 3.2l-6.4 6.4c-28.8 28.8-70.4 44.8-112 44.8s-83.2-16-112-48l-6.4-6.4c-12.8-12.8-32-12.8-44.8-3.2-12.8 12.8-16 35.2-3.2 48zM352 544c19.2 0 32-12.8 32-32v-32c0-19.2-12.8-32-32-32s-32 12.8-32 32v32c0 19.2 12.8 32 32 32zM672 544c19.2 0 32-12.8 32-32v-32c0-19.2-12.8-32-32-32s-32 12.8-32 32v32c0 19.2 12.8 32 32 32zM512-64c-246.4 0-448 201.6-448 448s201.6 448 448 448 448-201.6 448-448-201.6-448-448-448z m0 64c211.2 0 384 172.8 384 384s-172.8 384-384 384-384-172.8-384-384 172.8-384 384-384z"  horiz-adv-x="1024" />

    
    <glyph glyph-name="manyidu" unicode="&#59266;" d="M640 256h-256c-19.2 0-32-12.8-32-32s12.8-32 32-32h256c19.2 0 32 12.8 32 32s-12.8 32-32 32zM384 480v32c0 19.2-12.8 32-32 32s-32-12.8-32-32v-32c0-19.2 12.8-32 32-32s32 12.8 32 32zM512 832c-246.4 0-448-201.6-448-448s201.6-448 448-448 448 201.6 448 448-201.6 448-448 448z m0-832c-211.2 0-384 172.8-384 384s172.8 384 384 384 384-172.8 384-384-172.8-384-384-384zM672 544c-19.2 0-32-12.8-32-32v-32c0-19.2 12.8-32 32-32s32 12.8 32 32v32c0 19.2-12.8 32-32 32z"  horiz-adv-x="1024" />

    
    <glyph glyph-name="manyidu2" unicode="&#59292;" d="M512-64c-246.4 0-448 201.6-448 448s201.6 448 448 448 448-201.6 448-448-201.6-448-448-448z m0 64c211.2 0 384 172.8 384 384s-172.8 384-384 384-384-172.8-384-384 172.8-384 384-384z m-166.4 233.6c3.2-3.2 6.4-6.4 6.4-9.6 41.6-41.6 99.2-67.2 160-67.2s118.4 22.4 160 67.2c3.2 3.2 6.4 6.4 6.4 9.6 12.8 12.8 9.6 32-3.2 44.8-12.8 12.8-32 9.6-44.8-3.2l-6.4-6.4c-28.8-28.8-70.4-44.8-112-44.8s-83.2 16-112 48l-6.4 6.4c-12.8 12.8-32 12.8-44.8 3.2-12.8-12.8-16-35.2-3.2-48z m6.4 310.4c19.2 0 32-12.8 32-32v-32c0-19.2-12.8-32-32-32s-32 12.8-32 32v32c0 19.2 12.8 32 32 32z m320 0c19.2 0 32-12.8 32-32v-32c0-19.2-12.8-32-32-32s-32 12.8-32 32v32c0 19.2 12.8 32 32 32z"  horiz-adv-x="1024" />

    
    <glyph glyph-name="phone" unicode="&#58941;" d="M654.72-31.360000000000014H364.16c-87.04 0-158.08 71.04-158.08 158.08V616.96c0 87.04 71.04 158.08 158.08 158.08h290.56c87.04 0 158.08-71.04 158.08-158.08v-490.24c0-87.04-71.04-158.08-158.08-158.08zM364.16 711.6800000000001c-51.84 0-94.08-42.24-94.08-94.08v-490.24c0-51.84 42.24-94.08 94.08-94.08h290.56c51.84 0 94.08 42.24 94.08 94.08V616.96c0 51.84-42.24 94.08-94.08 94.08H364.16zM599.68 103.67999999999995H419.2c-17.92 0-32 14.08-32 32s14.08 32 32 32h181.12c17.92 0 32-14.08 32-32s-14.72-32-32.64-32z"  horiz-adv-x="1024" />

    
    <glyph glyph-name="gengduo" unicode="&#58918;" d="M511.817 867.393c-266.75 0-482.997-216.246-482.997-482.996s216.246-482.996 482.997-482.996 482.996 216.246 482.996 482.996S778.566 867.393 511.817 867.393z m0-898.202c-229.313 0-415.208 185.893-415.208 415.207S282.504 799.605 511.817 799.605 927.024 613.71 927.024 384.397 741.13-30.809 511.817-30.809zM452.502 392.871a66.245 66.245 0 1 1 135.578 0 66.245 66.245 0 1 1-135.578 0zM249.135 392.871a66.245 66.245 0 1 1 135.578 0 66.245 66.245 0 1 1-135.578 0zM655.868 392.871a66.245 66.245 0 1 1 135.579 0 66.245 66.245 0 1 1-135.578 0z"  horiz-adv-x="1024" />

    
    <glyph glyph-name="success" unicode="&#58880;" d="M512 800C282.24 800 96 613.76 96 384s186.24-416 416-416 416 186.24 416 416S741.76 800 512 800z m232.256-297.824l-303.552-303.52c-7.616-7.584-19.936-7.584-27.552 0l-6.112 6.112-0.032-0.032L240 372.928c-7.616 7.616-7.616 19.968 0 27.584l41.408 41.376c7.616 7.616 19.968 7.616 27.584 0L427.04 322.976l248.192 248.192c7.616 7.616 19.968 7.616 27.584 0l41.408-41.408c7.648-7.584 7.648-19.936 0.032-27.584z"  horiz-adv-x="1024" />

    
    <glyph glyph-name="info" unicode="&#58883;" d="M512 800C282.24 800 96 613.76 96 384s186.24-416 416-416 416 186.24 416 416S741.76 800 512 800z m65.248-569.056c-31.392-47.136-63.328-83.456-117.056-83.456-36.672 5.984-51.744 32.256-43.808 59.04l69.12 228.928c1.696 5.6-1.12 11.584-6.24 13.408-5.088 1.792-15.072-4.832-23.712-14.304l-41.792-50.272c-1.12 8.448-0.128 22.4-0.128 28.032 31.392 47.136 82.976 84.32 117.952 84.32 33.248-3.392 48.992-29.984 43.2-59.2l-69.6-230.048c-0.928-5.184 1.824-10.464 6.528-12.128 5.12-1.792 15.872 4.832 24.544 14.304l41.76 50.24c1.12-8.448-0.768-23.232-0.768-28.864z m-9.312 299.008c-26.432 0-47.872 19.264-47.872 47.616s21.44 47.584 47.872 47.584 47.872-19.264 47.872-47.584c0-28.384-21.44-47.616-47.872-47.616z"  horiz-adv-x="1024" />

    
    <glyph glyph-name="warning" unicode="&#58884;" d="M512 803.715C280.198 803.715 92.285 615.802 92.285 384S280.198-35.715 512-35.715 931.715 152.198 931.715 384 743.802 803.715 512 803.715z m0-694.354c-33.114 0-59.96 26.846-59.96 59.96 0 33.115 26.846 59.959 59.96 59.959s59.96-26.844 59.96-59.96c0-33.113-26.846-59.959-59.96-59.959zM571.96 384c0-33.114-26.846-59.96-59.96-59.96s-59.96 26.846-59.96 59.96V593.858c0 33.116 26.846 59.96 59.96 59.96s59.96-26.844 59.96-59.96V384z"  horiz-adv-x="1024" />

    
    <glyph glyph-name="error" unicode="&#58885;" d="M512-32C282.24-32 96 154.24 96 384S282.24 800 512 800s416-186.24 416-416-186.24-416-416-416z m190.752 537.312c7.808 7.808 7.808 20.512 0 28.32l-42.496 42.464c-7.808 7.808-20.512 7.808-28.32 0L511.584 455.744 391.232 576.096c-7.808 7.808-20.512 7.808-28.32 0l-42.496-42.464c-7.808-7.808-7.808-20.512 0-28.32L440.8 384.928l-120.384-120.32c-7.808-7.808-7.808-20.512 0-28.32l42.496-42.496c7.808-7.808 20.512-7.808 28.32 0l120.352 120.384 120.352-120.384c7.808-7.808 20.512-7.808 28.32 0l42.496 42.496c7.808 7.808 7.808 20.512 0 28.32l-120.384 120.32 120.384 120.384z"  horiz-adv-x="1024" />

    


  </font>
</defs>
</svg>
